<mxfile host="Electron" modified="2024-06-02T17:49:59.581Z" agent="Mozilla/5.0 (Windows NT 10.0; Win64; x64) AppleWebKit/537.36 (KHTML, like Gecko) draw.io/24.4.0 Chrome/120.0.6099.109 Electron/28.1.0 Safari/537.36" etag="Gz7_RNTx667DnyCZXKn6" version="24.4.0" type="device">
  <diagram name="Página-1" id="lAr8NUWabXVHWGTmM7sq">
    <mxGraphModel dx="1434" dy="854" grid="1" gridSize="10" guides="1" tooltips="1" connect="1" arrows="1" fold="1" page="1" pageScale="1" pageWidth="827" pageHeight="1169" math="0" shadow="0">
      <root>
        <mxCell id="0" />
        <mxCell id="1" parent="0" />
        <mxCell id="fNFEGd3oljvyejONXb3K-13" value="" style="endArrow=none;html=1;rounded=0;curved=1;strokeColor=#0000FF;strokeWidth=2;" edge="1" parent="1">
          <mxGeometry width="50" height="50" relative="1" as="geometry">
            <mxPoint x="420" y="340" as="sourcePoint" />
            <mxPoint x="450" y="400" as="targetPoint" />
            <Array as="points">
              <mxPoint x="450" y="360" />
            </Array>
          </mxGeometry>
        </mxCell>
        <mxCell id="fNFEGd3oljvyejONXb3K-1" value="" style="endArrow=classic;html=1;rounded=0;strokeWidth=3;strokeColor=#FF0000;" edge="1" parent="1">
          <mxGeometry width="50" height="50" relative="1" as="geometry">
            <mxPoint x="360" y="400" as="sourcePoint" />
            <mxPoint x="520" y="400" as="targetPoint" />
          </mxGeometry>
        </mxCell>
        <mxCell id="fNFEGd3oljvyejONXb3K-2" value="" style="endArrow=classic;html=1;rounded=0;strokeWidth=3;strokeColor=#00CC00;" edge="1" parent="1">
          <mxGeometry width="50" height="50" relative="1" as="geometry">
            <mxPoint x="360" y="400" as="sourcePoint" />
            <mxPoint x="360" y="240" as="targetPoint" />
          </mxGeometry>
        </mxCell>
        <mxCell id="fNFEGd3oljvyejONXb3K-3" value="Y" style="text;html=1;align=center;verticalAlign=middle;resizable=0;points=[];autosize=1;strokeColor=none;fillColor=none;fontStyle=1;fontSize=14;fontColor=#00CC00;" vertex="1" parent="1">
          <mxGeometry x="330" y="230" width="30" height="30" as="geometry" />
        </mxCell>
        <mxCell id="fNFEGd3oljvyejONXb3K-4" value="X" style="text;html=1;align=center;verticalAlign=middle;resizable=0;points=[];autosize=1;strokeColor=none;fillColor=none;fontStyle=1;fontSize=14;fontColor=#ff0000;" vertex="1" parent="1">
          <mxGeometry x="500" y="400" width="30" height="30" as="geometry" />
        </mxCell>
        <mxCell id="fNFEGd3oljvyejONXb3K-5" value="" style="endArrow=classic;html=1;rounded=0;entryX=0;entryY=1;entryDx=0;entryDy=0;strokeWidth=2;" edge="1" parent="1" target="fNFEGd3oljvyejONXb3K-7">
          <mxGeometry width="50" height="50" relative="1" as="geometry">
            <mxPoint x="360" y="400" as="sourcePoint" />
            <mxPoint x="500" y="250" as="targetPoint" />
          </mxGeometry>
        </mxCell>
        <mxCell id="fNFEGd3oljvyejONXb3K-7" value="" style="ellipse;whiteSpace=wrap;html=1;aspect=fixed;fillColor=#000000;" vertex="1" parent="1">
          <mxGeometry x="510" y="240" width="10" height="10" as="geometry" />
        </mxCell>
        <mxCell id="fNFEGd3oljvyejONXb3K-14" value="(x, y) = posición del cursor" style="text;html=1;align=center;verticalAlign=middle;resizable=0;points=[];autosize=1;strokeColor=none;fillColor=none;fontStyle=1;fontSize=14;rounded=0;" vertex="1" parent="1">
          <mxGeometry x="440" y="210" width="190" height="30" as="geometry" />
        </mxCell>
        <mxCell id="fNFEGd3oljvyejONXb3K-15" value="(p1, p2) = Pivot" style="text;html=1;align=center;verticalAlign=middle;resizable=0;points=[];autosize=1;strokeColor=none;fillColor=none;fontStyle=1;fontSize=14;" vertex="1" parent="1">
          <mxGeometry x="309" y="400" width="120" height="30" as="geometry" />
        </mxCell>
        <mxCell id="fNFEGd3oljvyejONXb3K-16" value="α&amp;nbsp;= Atan2((y-p2), (x-p1))" style="text;html=1;align=center;verticalAlign=middle;whiteSpace=wrap;rounded=0;fontSize=14;fontStyle=1;fontColor=#0000FF;" vertex="1" parent="1">
          <mxGeometry x="429" y="340" width="200" height="30" as="geometry" />
        </mxCell>
      </root>
    </mxGraphModel>
  </diagram>
</mxfile>
